HIERARCHY
ROOT Hips
{
	OFFSET	0.00	0.00	0.00
	CHANNELS 6 Xposition Yposition Zposition Zrotation Xrotation Yrotation
	JOINT Spine
	{
		OFFSET	 0.00	0.01	 0.00
		CHANNELS 3 Zrotation Xrotation Yrotation
		JOINT Spine1
		{
			OFFSET	 0.00	 2.45913012437421	 0.00
			CHANNELS 3 Zrotation Xrotation Yrotation
            JOINT Neck
            {
                OFFSET	 0.00	 2.48462964506057	 0.00
                CHANNELS 3 Zrotation Xrotation Yrotation
                JOINT Head
                {
                    OFFSET	 0.00	 0.927524780924562	 0.00
                    CHANNELS 3 Zrotation Xrotation Yrotation
                    End Site 
                    {
                        OFFSET	 0.00	 1.14999962169752	 0.00
                    }
                }
            }
			JOINT LeftShoulder
			{
				OFFSET	 0.00	 2.48462964506057	 0.00
				CHANNELS 3 Zrotation Xrotation Yrotation
				JOINT LeftUpArm
				{
					OFFSET	 0.00	 1.24881979654096	 0.00
					CHANNELS 3 Zrotation Xrotation Yrotation
					JOINT LeftForeArm
					{
						OFFSET	 0.00	2.59758046908119	 0.00
						CHANNELS 3 Zrotation Xrotation Yrotation
						JOINT LeftHand
						{
							OFFSET	 0.00	2.45542024364365	 0.00
							CHANNELS 3 Zrotation Xrotation Yrotation
							JOINT LeftHandThumb 
							{
								OFFSET	 0.00	0.00	 0.00
								CHANNELS 3 Zrotation Xrotation Yrotation
								End Site
								{
									OFFSET	 0.00	0.00	1.00000003353624
								}
							}
							JOINT L_Wrist_End 
							{
								OFFSET	 0.00	0.99999967115358	 0.00
								CHANNELS 3 Zrotation Xrotation Yrotation
								End Site 
								{
									OFFSET	 0.00	 0.00	 0.00
								}
							}
						}
					}
				}
			}
			JOINT RightShoulder
			{
				OFFSET	 0.00	 2.48462964506057	 0.00
				CHANNELS 3 Zrotation Xrotation Yrotation
				JOINT RightUpArm
				{
					OFFSET	 0.00	 1.24881979654096	 0.00
					CHANNELS 3 Zrotation Xrotation Yrotation
					JOINT RightForeArm
					{
						OFFSET	 0.00	2.59758046908119	 0.00
						CHANNELS 3 Zrotation Xrotation Yrotation
						JOINT RightHand
						{
							OFFSET	 0.00	2.45542024364365	 0.00
							CHANNELS 3 Zrotation Xrotation Yrotation
							JOINT RightHandThumb 
							{
								OFFSET	 0.00	0.00	 0.00
								CHANNELS 3 Zrotation Xrotation Yrotation
								End Site
								{
									OFFSET	 0.00	0.00	1.00000003353624
								}
							}
							JOINT R_Wrist_End 
							{
								OFFSET	 0.00	0.99999967115358	 0.00
								CHANNELS 3 Zrotation Xrotation Yrotation
								End Site 
								{
									OFFSET	 0.00	 0.00	 0.00
								}
							}
						}
					}
				}
			}
		}
	}
	JOINT LeftUpLeg
	{
		OFFSET	 1.2719394002717	 0.00	 0.00
		CHANNELS 3 Zrotation Xrotation Yrotation
		JOINT LeftLowLeg
		{
			OFFSET	 0.00	-4.3429100912261	 0.00
			CHANNELS 3 Zrotation Xrotation Yrotation
			JOINT LeftFoot
			{
				OFFSET	 0.00	-4.48767017425826	 0.00
				CHANNELS 3 Zrotation Xrotation Yrotation
				JOINT LeftToeBase
                {
                    OFFSET	 0.00	0.00	 1.51507020887566
                    CHANNELS 3 Zrotation Xrotation Yrotation
                    End Site 
                    {
                        OFFSET	 0.00	0.00	 0.75000010571191
                    }
                }
			}
		}
	}
	JOINT RightUpLeg
	{
		OFFSET	 -1.2719393604653	 0.00	 0.00
		CHANNELS 3 Zrotation Xrotation Yrotation
		JOINT RightLowLeg
		{
			OFFSET	 0.00	-4.3429100912261	 0.00
			CHANNELS 3 Zrotation Xrotation Yrotation
			JOINT RightFoot
			{
				OFFSET	 0.00	-4.48767017425826	 0.00
				CHANNELS 3 Zrotation Xrotation Yrotation
				JOINT RightToeBase
                {
                    OFFSET	 0.00	0.00	 1.51507020887566
                    CHANNELS 3 Zrotation Xrotation Yrotation
                    End Site 
                    {
                        OFFSET	 0.00	0.00	 0.749999965609858
                    }
                }   
			}
		}
	}
}
MOTION 
Frames:	12 
Frame Time: 0.02 
  3.190260009765625 5.36208984375 8.902730102539062 -171.739 70.2058 170.428 5.81801 24.457 0.295716 -1.43894 9.27563 -0.748646 0.97781 11.1168 6.94111 4.72536 -61.466 2.83823 -106.152 -0.0319866 9.15759 -31.2089 29.7424 -2.79011 0.0 92.4132 0.0 33.6193 4.22056 14.8051 0.0 0.0 0.0 0.0 0.0 0.0 110.5105 1.53485 -9.03438 26.1992 37.6348 7.98872 0.0 88.3198 0.0 -36.8469 18.7848 -15.9188 0.0 0.0 0.0 0.0 0.0 0.0 12.9217 -54.3574 9.6546 0.0 47.8465 0.0 8.67386 1.7363997 -5.87736 0.0 -40.6193 0.0 5.99688 -53.3651 4.0078 0.0 45.5131 0.0 12.3366 4.0368996 -2.95682 0.0 -28.1153 0.0 
  3.16510009765625 5.2864697265625 8.984569702148438 -171.598 70.7546 170.451 5.97147 23.4415 0.136551 -1.43284 9.46046 -0.809388 1.40972 11.2346 6.6721 4.41171 -60.5566 2.78598 -105.9509 0.191623 9.0285 -31.2013 30.6342 -2.27022 0.0 93.8428 0.0 34.4961 4.22623 13.999 0.0 0.0 0.0 0.0 0.0 0.0 110.2396 1.66606 -8.95853 25.841 38.683 8.12527 0.0 89.0654 0.0 -38.5668 21.0107 -15.8191 0.0 0.0 0.0 0.0 0.0 0.0 12.3687 -52.2426 9.05414 0.0 45.7836 0.0 8.56232 2.3439999 -6.13262 0.0 -40.6319 0.0 5.81865 -51.3183 3.81774 0.0 43.6935 0.0 12.0334 4.6527996 -3.29249 0.0 -28.3176 0.0 
  3.1387600708007812 5.207670288085938 9.0627197265625 -171.498 71.4027 170.467 6.05744 22.4153 0.0328323 -1.36859 9.56273 -0.855193 1.62559 11.5066 6.51167 4.16786 -59.6174 2.58415 -105.695 0.469264 8.87484 -31.3972 31.6829 -1.60861 0.0 94.909 0.0 35.1895 4.56148 13.7929 0.0 0.0 0.0 0.0 0.0 0.0 109.9189 1.8001 -8.6993 25.7942 39.4384 7.62274 0.0 89.604 0.0 -39.499 22.3159 -16.1712 0.0 0.0 0.0 0.0 0.0 0.0 11.8492 -50.0084 8.51482 0.0 43.7145 0.0 8.49923 2.9515 -6.27825 0.0 -40.729202 0.0 5.68795 -49.2012 3.71546 0.0 41.9137 0.0 11.825 5.2707796 -3.57358 0.0 -28.5441 0.0 
  3.1109298706054687 5.123759765625 9.138209838867187 -171.366 72.0766 170.461 6.11897 21.2783 -0.093318 -1.18872 9.66001 -0.937718 1.54502 11.9817 6.48293 4.0004 -59.0187 2.26447 -105.0985 1.2301 6.94246 -33.1925 31.2291 0.634572 0.0 95.9442 0.0 35.4898 4.93774 13.5834 0.0 0.0 0.0 0.0 0.0 0.0 109.5709 1.93706 -8.55791 25.6789 40.3381 7.13074 0.0 89.6846 0.0 -39.7652 23.4014 -17.6112 0.0 0.0 0.0 0.0 0.0 0.0 11.4002 -47.7336 7.99587 0.0 41.6863 0.0 8.36221 3.5079002 -6.47996 0.0 -40.6479 0.0 5.55085 -47.0468 3.49077 0.0 40.1607 0.0 11.3863 5.8405895 -3.87686 0.0 -28.699001 0.0 
  3.082239990234375 5.036610107421875 9.210540161132812 -171.098 72.8095 170.28 6.16905 20.1319 -0.201763 -0.982524 9.71852 -1.00856 1.36834 12.525 6.56214 3.94024 -58.5526 2.00435 -104.8212 1.73722 6.2789 -33.9294 31.8954 1.7122 0.0 96.4888 0.0 35.7829 5.29687 12.99 0.0 0.0 0.0 0.0 0.0 0.0 109.2128 2.02833 -8.46541 25.5665 41.2376 6.47272 0.0 89.2044 0.0 -39.4118 24.0655 -18.0555 0.0 0.0 0.0 0.0 0.0 0.0 11.0591 -45.3874 7.54829 0.0 39.6881 0.0 8.27244 4.0453997 -6.6327 0.0 -40.5626 0.0 5.49945 -44.8163 3.28991 0.0 38.4275 0.0 10.8574 6.39032 -4.23255 0.0 -28.6787 0.0 
  3.0523199462890624 4.947409973144532 9.279190063476562 -170.727 73.5288 169.989 6.26065 18.8769 -0.319597 -0.879442 9.84074 -1.06941 1.43036 12.8098 6.50811 3.75948 -57.65 1.84031 -104.6585 2.03066 6.51318 -33.963 33.4257 1.96932 0.0 96.6665 0.0 35.8702 5.21388 12.4014 0.0 0.0 0.0 0.0 0.0 0.0 108.859695 2.07544 -8.39877 25.6504 42.1595 5.88719 0.0 88.1958 0.0 -38.2103 24.8206 -18.4 0.0 0.0 0.0 0.0 0.0 0.0 10.8209 -43.0576 7.22317 0.0 37.7184 0.0 8.20241 4.5528 -6.77608 0.0 -40.599 0.0 5.55056 -42.5334 3.31323 0.0 36.6076 0.0 10.5482 6.86337 -4.59156 0.0 -28.6719 0.0 
  3.0231500244140626 4.852699890136718 9.3452001953125 -170.038 74.3643 169.49 6.48636 17.6034 -0.55204 -0.795065 10.0387 -1.18698 1.36549 13.0833 6.54229 3.58502 -56.5812 1.64114 -104.3627 2.64514 6.18281 -34.6016 34.2583 2.66698 0.0 96.5319 0.0 35.8681 5.21943 11.6348 0.0 0.0 0.0 0.0 0.0 0.0 108.944595 2.20166 -8.52412 24.82 43.3909 6.29855 0.0 86.7418 0.0 -35.0606 24.5374 -18.564 0.0 0.0 0.0 0.0 0.0 0.0 10.5422 -40.5786 6.70306 0.0 35.685 0.0 8.06938 5.0355597 -6.90658 0.0 -40.588303 0.0 5.46525 -40.0996 2.89774 0.0 34.7865 0.0 10.1169 7.35185 -4.74964 0.0 -28.771301 0.0 
  2.996099853515625 4.752340087890625 9.406959838867188 -168.824 75.3163 168.603 6.94345 16.3578 -0.979903 -0.886797 10.1868 -1.41255 1.39955 13.692 6.60411 3.44474 -55.4928 1.60754 -104.1757 3.03467 6.44692 -34.8116 35.5748 2.97192 0.0 95.742 0.0 36.5773 4.79098 9.48924 0.0 0.0 0.0 0.0 0.0 0.0 108.7264 2.46612 -8.39635 25.4699 43.9495 5.53642 0.0 85.3923 0.0 -31.7686 23.0709 -17.5865 0.0 0.0 0.0 0.0 0.0 0.0 10.2791 -38.0562 6.03013 0.0 33.8028 0.0 7.96847 5.46175 -6.99675 0.0 -40.580902 0.0 5.34816 -37.4792 2.23504 0.0 32.9739 0.0 9.73931 7.78144 -4.79337 0.0 -28.8916 0.0 
  2.9692401123046874 4.6643701171875 9.460189819335938 -169.393 75.5028 169.067 6.92122 14.632 -1.07512 -0.917332 9.80604 -1.50343 1.2705 14.4432 6.77967 3.2826 -53.8498 1.45611 -103.7817 3.13214 6.65844 -35.5144 36.9564 3.59177 0.0 94.631 0.0 36.6924 3.31213 6.35586 0.0 0.0 0.0 0.0 0.0 0.0 108.2113 2.60283 -8.30438 26.731 44.3833 4.42064 0.0 84.2565 0.0 -28.3948 20.339 -14.7901 0.0 0.0 0.0 0.0 0.0 0.0 10.1561 -36.3978 6.06909 0.0 32.083 0.0 8.01002 5.9463997 -7.10492 0.0 -40.721703 0.0 5.27859 -36.0029 2.0983 0.0 31.4882 0.0 9.33017 8.24917 -4.74927 0.0 -28.9554 0.0 
  2.93781005859375 4.578760070800781 9.506309814453125 -170.42 75.5647 169.741 6.56951 12.8622 -0.956764 -0.659646 9.26565 -1.49287 0.884404 15.4369 7.08716 3.20391 -52.1145 1.1013 -103.2957 3.33976 6.72298 -36.667 37.8468 4.4571 0.0 93.699 0.0 36.4217 1.72932 3.74593 0.0 0.0 0.0 0.0 0.0 0.0 107.572205 2.6479 -8.29653 28.1226 44.5856 3.08163 0.0 83.5249 0.0 -26.0284 16.7413 -10.5361 0.0 0.0 0.0 0.0 0.0 0.0 10.2085 -34.8687 6.57077 0.0 30.4634 0.0 7.87962 6.33276 -7.30495 0.0 -40.732002 0.0 5.35754 -34.826 2.34141 0.0 30.2353 0.0 8.95243 8.66521 -4.75522 0.0 -29.1446 0.0 
  2.9088400268554686 4.466610107421875 9.552529907226562 -167.854 76.9917 167.567 7.02476 11.9307 -1.43803 -0.347096 9.44759 -1.82233 0.138557 17.1306 7.69452 3.44333 -51.5872 0.763029 -103.3631 3.52924 6.57318 -37.2378 38.24 5.35906 0.0 93.1246 0.0 36.0796 0.695331 1.78981 0.0 0.0 0.0 0.0 0.0 0.0 107.4237 2.82605 -8.02138 29.0696 44.1943 1.47693 0.0 83.3214 0.0 -24.4741 14.0033 -6.29457 0.0 0.0 0.0 0.0 0.0 0.0 10.2016 -32.0259 5.90717 0.0 29.0402 0.0 7.7887 6.4788103 -7.41858 0.0 -40.7117 0.0 5.402 -31.6531 1.4193 0.0 28.4932 0.0 8.52546 8.962669 -4.59704 0.0 -29.2603 0.0 
  2.880060119628906 4.369339904785156 9.591489868164063 -167.0 77.8036 166.674 6.97214 10.7499 -1.6184 0.0837487 9.26384 -1.9997 -0.643551 18.5163 8.31964 3.62907 -50.5275 0.312055 -103.156204 3.51968 6.61536 -38.2033 38.5835 6.29431 0.0 93.0429 0.0 35.605 -0.077608 0.265127 0.0 0.0 0.0 0.0 0.0 0.0 107.0699 2.70824 -7.75439 30.1916 43.8206 -0.487684 0.0 83.7082 0.0 -24.0954 12.3688 -2.56679 0.0 0.0 0.0 0.0 0.0 0.0 10.1871 -29.8613 5.69457 0.0 27.6814 0.0 7.68132 6.7106705 -7.40511 0.0 -40.7141 0.0 5.49845 -29.5133 1.24828 0.0 27.1546 0.0 8.19745 9.24218 -4.56611 0.0 -29.3228 0.0 
